<?xml version="1.0" encoding="UTF-8"?>
<!DOCTYPE svg PUBLIC "-//W3C//DTD SVG 1.1//EN" "http://www.w3.org/Graphics/SVG/1.1/DTD/svg11.dtd">
<!-- Creator: CorelDRAW -->
<svg xmlns="http://www.w3.org/2000/svg" xml:space="preserve" width="924px" height="1016px" version="1.1" style="shape-rendering:geometricPrecision; text-rendering:geometricPrecision; image-rendering:optimizeQuality; fill-rule:evenodd; clip-rule:evenodd"
viewBox="0 0 428.3 471.18"
 xmlns:xlink="http://www.w3.org/1999/xlink"
 xmlns:xodm="http://www.corel.com/coreldraw/odm/2003">
 <defs>
  <style type="text/css">
   <![CDATA[
    .fil1 {fill:#094885}
    .fil0 {fill:#999A9C}
   ]]>
  </style>
 </defs>
 <g id="Camada_x0020_1">
  <metadata id="CorelCorpID_0Corel-Layer"/>
  <path class="fil0" d="M21.28 117.49c-0.11,2.29 -5.72,16.48 -7.05,20.81 -2.33,7.58 -3.88,14.6 -5.54,22.63 -3.39,16.46 -6.67,33.41 -6.21,50.53 3.02,-2.41 7.23,-13.84 18.41,-22.2 2.51,-1.88 6.2,-3.23 8.53,-5.32 2.73,-7.15 4.25,-23.34 7.07,-32.63 9.02,-29.69 18.43,-43.19 36.59,-64.85 43.14,-51.45 126.66,-72.85 192.43,-44.27 22.31,9.69 31.78,17.21 48.76,32.11 28.74,25.22 50.43,76.76 49.14,112.59 -11.51,0.71 -17.11,0.69 -25.7,6.67 -32.96,22.94 -36.17,92.93 -20.57,126.53 8.19,17.65 17.39,23.58 40.6,25.94 -0.42,4.1 -8.97,22.64 -11.31,27.43 -4.47,9.15 -8.07,20.22 -14.99,25.01 -14.32,9.9 -38.35,16.81 -56.23,23.82 -9.68,3.8 -20.01,6.79 -29.75,10.22 -13.53,4.78 -2.46,-8.77 -29.44,-1.39 -7.97,2.18 -24.85,6.04 -30.51,9.61 -8.45,5.33 -7.57,21.11 -0.19,27.39 9.15,7.79 32.25,-1.21 46.52,-5.7 6.65,-2.1 8.53,-3.97 10.96,-9.54 1.8,-4.12 0.22,-3.44 4.4,-4.98l23.1 -7.52c19.85,-7.3 53.33,-18.37 70.68,-28.95 15.8,-9.63 27.17,-47.89 34.7,-65.5 7.51,-0.32 14.23,-2.5 19.59,-5.37 -6.25,-2.42 -7.53,0.57 -19.03,-8.03 -14.02,-10.47 -18.98,-44.54 -17.81,-64.28 0.92,-15.66 4.7,-31.2 10.88,-43.95 4.31,-8.88 10.95,-17.56 19.31,-21.54 1.59,-0.76 3.06,-1.35 4.9,-1.74l4.34 -0.82c2.34,-0.71 1,-0.15 2.25,-0.91 -0.47,-16.8 -3.12,-28.22 -6.04,-43.91 -2.47,-13.3 -4.66,-20.91 -9.66,-32.83 -1.27,-3.03 -1.4,-2.38 -1.49,-5.08l-3.56 -6.06c-10.54,-23.11 -25.58,-42.34 -43.66,-59.36 -34.95,-32.91 -78.82,-52.12 -133.62,-52.05 -56.58,0.08 -97.64,20.84 -134.12,52.4 -5.5,4.76 -11.31,11.41 -16.09,17.13 -17.61,21.05 -27.03,43.38 -30.59,47.96z"/>
  <path class="fil1" d="M189.17 152.69l15.28 6.78c5.05,1.96 10.36,5.07 15.45,6.48 -1.76,3.67 -23.5,29.24 -25.96,32.05l-26.78 31.97c-5.58,7.29 -27.9,32.94 -31.87,39.14 1.56,3.58 24.24,32.43 27.14,36.22l82.62 108.68c22.7,-0.72 20.61,2.31 40.71,-4.92 7.87,-2.83 25.76,-9.11 31.77,-13.1 -1.52,-3.26 -3.15,-4.47 -5.61,-7.63l-91.67 -118.44c1.19,-3.24 19.85,-25.5 23.66,-29.67l31.4 -37.47c5.02,2.47 19.4,21.27 23.84,23.64l22.74 -124.9 -132.72 51.17z"/>
  <path class="fil1" d="M71.92 413.72l78.79 0.16c0.35,-28.4 0.09,-56.96 0,-85.16 -0.02,-7.12 0.06,-14.23 0.07,-21.33 0,-5.82 -0.93,-5.55 -7.4,-13.62l-14.12 -18.24c-1.91,-2.49 -3.26,-3.27 -4.46,-6.42 1.85,-2.97 6.82,-9.01 9.32,-11.76 3.91,-4.32 6.46,-7.67 9.97,-12.2 4.32,-5.56 6.75,-5.14 6.67,-14.32l-0.02 -65.6c-0.02,-12.65 1.15,-32.01 -0.17,-43.81l-78.37 -0.07 -0.28 292.37z"/>
  <path class="fil0" d="M56.69 343.67l0.01 -157.15c-23.37,0.08 -36.2,8.91 -44.37,23.13 -16.87,29.35 -16.09,80.29 0.28,110.12 7.95,14.48 21.01,24.81 44.08,23.9z"/>
  <path class="fil0" d="M395.98 207.93c-28.28,8.72 -37.11,68.86 -23.62,105.49 13.29,36.09 54.29,22.52 55.9,-45.98 0.32,-13.76 -1.23,-28.07 -6.19,-40.38 -4.13,-10.23 -12.67,-23.27 -26.09,-19.13z"/>
 </g>
</svg>
